<?xml version="1.0" encoding="UTF-8"?>
<svg id="Layer_2" data-name="Layer 2" xmlns="http://www.w3.org/2000/svg" viewBox="0 0 310 310">
  <defs>
    <style>
      .cls-1 {
        fill: #f4f1e9;
      }

      .cls-1, .cls-2 {
        stroke-width: 0px;
      }

      .cls-2 {
        fill: #088a8a;
      }
    </style>
  </defs>
  <g id="Layer_4" data-name="Layer 4">
    <g>
      <path class="cls-2" d="m279,310H31c-17.05,0-31-13.95-31-31V31C0,13.95,13.95,0,31,0h248c17.05,0,31,13.95,31,31v248c0,17.05-13.95,31-31,31Z"/>
      <path class="cls-1" d="m247.1,253.1h-47.44v-50.68c0-2.76-2.23-5-5-5h-12.19c-2.76,0-5,2.24-5,5v50.68h-11.38v-96.77c0-2.76-2.24-5-5-5h-12.19c-2.76,0-5,2.24-5,5v96.77h-11.38v-68.86c0-2.76-2.24-5-5-5h-12.19c-2.76,0-5,2.24-5,5v68.86h-47.43c-14.12,0-22.95-15.29-15.89-27.51l92.1-159.53c7.06-12.22,24.71-12.22,31.77,0l92.1,159.53c7.06,12.22-1.76,27.51-15.88,27.51Z"/>
    </g>
  </g>
</svg>